<?xml version="1.0" standalone="no"?>
<!DOCTYPE svg PUBLIC "-//W3C//DTD SVG 20010904//EN"
 "http://www.w3.org/TR/2001/REC-SVG-20010904/DTD/svg10.dtd">
<svg version="1.0" xmlns="http://www.w3.org/2000/svg"
 width="600.000000pt" height="370.000000pt" viewBox="0 0 600.000000 370.000000"
 preserveAspectRatio="xMidYMid meet">

<g transform="translate(0.000000,370.000000) scale(0.100000,-0.100000)"
fill="#000000" stroke="none">
<path d="M0 1850 l0 -1850 3000 0 3000 0 0 1850 0 1850 -3000 0 -3000 0 0
-1850z m4262 1791 c61 -23 842 -261 957 -292 78 -22 101 -34 101 -52 0 -5 -9
-2 -21 9 -20 18 -41 16 -967 -60 -2137 -175 -2770 -226 -2829 -226 -58 0 -71
4 -156 53 -50 29 -181 102 -289 163 -108 60 -195 110 -194 112 2 1 135 -65
297 -148 l293 -151 581 46 c319 25 828 66 1130 90 303 25 564 45 580 45 17 0
25 4 20 8 -7 5 -1 63 19 180 l29 172 36 2 c33 1 34 1 6 5 -28 4 -2828 -158
-3033 -175 -66 -6 -98 -5 -109 4 -19 13 -147 4 1292 95 616 38 1350 85 1630
103 281 19 524 34 542 35 18 0 56 -8 85 -18z m-3146 -490 l341 -181 54 5 c30
3 509 42 1064 86 556 44 1359 108 1785 143 426 35 777 62 778 60 2 -1 -2 -29
-9 -61 -7 -32 -13 -109 -13 -170 -1 -106 -2 -113 -21 -114 -11 0 -828 -74
-1815 -163 l-1795 -164 -385 198 -385 197 -3 193 -2 192 32 -20 c18 -11 187
-101 374 -201z m4658 -328 c-4 -38 -10 -95 -15 -128 -9 -65 -4 -602 6 -675 l7
-45 -1794 -318 c-986 -175 -1804 -318 -1818 -317 -14 1 -434 83 -935 183
l-910 183 -7 224 c-5 124 -7 340 -5 481 l2 255 952 -214 952 -215 1653 303
c909 167 1705 313 1768 325 165 32 150 37 144 -42z m-5194 -1666 c58 1 331 14
607 29 l502 26 199 -47 199 -48 419 81 419 82 1310 70 c720 38 1311 68 1313
66 2 -2 -9 -48 -23 -102 -73 -279 -73 -505 -1 -755 l22 -77 -80 -6 c-67 -5
-4613 -269 -4786 -278 l-55 -3 0 170 0 170 -44 78 c-38 69 -46 78 -65 72 -11
-4 -31 -8 -42 -9 -21 -1 -20 -4 17 -78 22 -43 38 -78 35 -78 -2 0 -21 29 -42
65 -25 43 -43 65 -53 62 -10 -2 -15 -12 -13 -27 2 -23 1 -22 -18 8 -11 17 -33
59 -50 92 l-30 59 0 388 1 388 77 -200 78 -200 104 2z m-142 -592 c-3 -3 -9 2
-12 12 -6 14 -5 15 5 6 7 -7 10 -15 7 -18z"/>
<path d="M3943 3603 c15 -2 39 -2 55 0 15 2 2 4 -28 4 -30 0 -43 -2 -27 -4z"/>
<path d="M3958 3253 c6 -2 18 -2 25 0 6 3 1 5 -13 5 -14 0 -19 -2 -12 -5z"/>
<path d="M3808 3243 c18 -2 45 -2 60 0 15 2 0 4 -33 4 -33 0 -45 -2 -27 -4z"/>
<path d="M622 820 c0 -14 2 -19 5 -12 2 6 2 18 0 25 -3 6 -5 1 -5 -13z"/>
<path d="M620 756 c0 -15 -7 -26 -21 -29 l-20 -5 21 -42 c33 -65 18 -70 -18
-7 -18 31 -34 57 -37 57 -4 0 71 -158 80 -168 1 -1 3 47 4 108 1 60 -1 110 -4
110 -3 0 -5 -11 -5 -24z"/>
</g>
</svg>
